<?xml version="1.0" encoding="UTF-8"?><svg id="katman_1" xmlns="http://www.w3.org/2000/svg" viewBox="0 0 141.73 141.73"><g id="g4144"><g id="g4146"><g id="g4148"><g id="g4154"><path id="path4164" d="M5.87,55.21l15.06,2.79,1.05,8.68s-2.91,20.54-7.21,21.41c0,0-3.05,1.31-5.55-10.07,0,0-2.45-11.15-3.35-22.82" style="fill:#fff;"/></g></g></g><g id="g4166"><g id="g4168"><g id="g4174"><path id="path4188" d="M14.86,89.71s2.03.01,3.58-4.09c2.69-7.14,3.87-15.23,5.63-22.73,1.41-5.99,3.45-12.52,7.13-12.31,0,0,4.41.16,7.78,15.29,0,0-3.1,20.79-8.33,22.85l-15.79.99h0Z" style="fill:#fff;"/></g></g></g><g id="g4190"><g id="g4192"><g id="g4198"><path id="path4208" d="M31.74,48.94s4.84,1.02,8.71,16.04c0,0,4.03,15.94,4.84,25.9l14.31-1.47s-2.04-16.11-6.42-27.34c-.79-2.03-1.94-4.98-3.69-6.98-.97-1.1-2.16-1.86-3.47-2.14,0,0-13.82-4-14.28-4.01" style="fill:#fff;"/></g></g></g></g><path d="M60.08,62.48h5.72c0,.96.19,1.57.58,1.85.26.16.63.27,1.09.33.12,0,.69,0,1.71.02,1.02.01,1.87.02,2.55.02,1.25,0,2.19,0,2.81-.01s1.19-.02,1.69-.03c.45,0,.84-.08,1.19-.23.44-.17.65-.66.65-1.46,0-.57-.16-.96-.48-1.16s-.94-.31-1.86-.31c-.81-.05-1.62-.09-2.41-.12s-1.53-.05-2.21-.05l-4.71-.2c-.67,0-1.28-.04-1.83-.11s-1.03-.17-1.45-.29c-.75-.23-1.34-.59-1.77-1.09-.73-.83-1.09-2.22-1.09-4.17,0-2.19.42-3.73,1.25-4.63.62-.69,1.59-1.14,2.91-1.33,1.32-.2,3.99-.3,8.03-.3,1.42,0,2.63.02,3.62.06s1.79.1,2.38.18c1.78.24,3,.73,3.66,1.48.66.75.99,2,.99,3.75v.91h-5.72c0-.52-.05-.89-.14-1.11-.06-.2-.2-.36-.43-.49s-.67-.22-1.33-.28c-.03,0-.59-.01-1.7-.04s-1.9-.04-2.39-.04c-2.52,0-4.05.08-4.59.23s-.82.59-.82,1.31c0,.68.27,1.1.82,1.25.39.09,1.27.18,2.64.25,1.37.07,2.58.11,3.62.11,1.41,0,2.63.03,3.65.1s1.98.15,2.86.26,1.65.34,2.29.71c.71.43,1.21,1.01,1.5,1.76.14.37.25.82.33,1.35s.11,1.14.11,1.85c0,1.82-.25,3.17-.74,4.07-.37.65-.88,1.14-1.53,1.45s-1.6.53-2.84.65-3.6.18-7.08.18c-2.94,0-5.1-.07-6.47-.22s-2.42-.42-3.13-.82c-.71-.4-1.21-.94-1.5-1.63-.28-.69-.43-1.72-.43-3.1v-.91Z" style="fill:#fff;"/><path d="M106.89,68.87l-1.66-3.28h-12.82l-1.66,3.28h-6.74l10.28-19.38h9.17l10.14,19.38h-6.7ZM103.16,61.35l-3.73-7.34h-1.18l-3.73,7.34h8.65Z" style="fill:#fff;"/><path d="M108.04,49.49h7.77l6.32,7.77,6.05-7.77h7.69l-10.6,12.52v6.86h-6.1v-6.86l-11.12-12.52Z" style="fill:#fff;"/><path d="M61.24,71.55h9.28l5,11.71,5-11.71h9.23v18.04h-5.05l.12-13.51h-.84l-6.34,13.51h-4.25l-6.34-13.51h-.9l.12,13.51h-5.05v-18.04Z" style="fill:#fff;"/><path d="M92.1,71.55h18.61v4.24h-13.57v2.6h12.88v3.97h-12.88v2.9h13.66v4.34h-18.71v-18.04Z" style="fill:#fff;"/><path d="M112.41,89.59v-18.04h12.13c.76,0,1.47,0,2.14.02s1.37.02,2.08.03c.31,0,.64.02.97.07.34.05.71.12,1.11.22,1.67.37,2.77,1.39,3.29,3.07.18.62.31,1.3.38,2.06s.1,1.85.1,3.29c0,1.65-.04,2.87-.12,3.66-.03.41-.09.8-.16,1.18-.07.38-.16.74-.27,1.08-.49,1.59-1.52,2.56-3.09,2.93-.45.11-.86.19-1.24.26s-.74.1-1.1.1c-.46,0-.84,0-1.14.01-1.53.04-2.5.07-2.93.07h-12.14ZM117.46,84.99h7.13c1.33,0,2.3-.04,2.91-.13.61-.09,1.04-.25,1.31-.5.27-.25.46-.65.58-1.22.12-.56.18-1.4.18-2.5s-.05-1.93-.15-2.5c-.1-.56-.27-1-.52-1.32-.26-.31-.67-.52-1.22-.62-.25-.04-.63-.08-1.16-.11s-1.19-.04-1.98-.04h-7.08v8.94Z" style="fill:#fff;"/></svg>